<svg t="1781247572849" class="icon" viewBox="0 -188 1400 1400" version="1.1" xmlns="http://www.w3.org/2000/svg" p-id="2049" width="128" height="128">
  <path d="M775.50404 218.8v129.8h70.1s-7.6-86.9-58.3-134.9c-4.5-4.1-11.8-1.1-11.8 5.1zM624.60404 218.8v129.8h-70.1s7.6-86.9 58.3-134.9c4.3-4.1 11.8-1.1 11.8 5.1zM270.50404 237.4l-17.6-17.6c-4.8-4.8-4.8-12.8 0-17.6l17.6-17.6c4.8-4.8 12.8-4.8 17.6 0l17.6 17.6c4.8 4.8 4.8 12.8 0 17.6l-17.6 17.6c-4.7 4.8-12.7 4.8-17.6 0z" fill="#FD5681" p-id="2050"/>
  <path d="M101.60404 328l-5.8-5.8c-1.6-1.6-1.6-4.2 0-5.8l5.8-5.8c1.6-1.6 4.2-1.6 5.8 0l5.8 5.8c1.6 1.6 1.6 4.2 0 5.8l-5.8 5.8c-1.6 1.6-4.2 1.6-5.8 0zM1098.00404 245.3l-11.8-11.8c-3.2-3.2-3.2-8.6 0-11.8l11.8-11.8c3.2-3.2 8.6-3.2 11.8 0l11.8 11.8c3.2 3.2 3.2 8.6 0 11.8l-11.8 11.8c-3.2 3.2-8.6 3.2-11.8 0z" fill="#3E47FD" p-id="2051"/>
  <path d="M191.70404 174.1l-8.9-8.9c-2.5-2.5-2.5-6.4 0-8.9l8.9-8.9c2.5-2.5 6.4-2.5 8.9 0l8.9 8.9c2.5 2.5 2.5 6.4 0 8.9l-8.9 8.9c-2.5 2.5-6.6 2.5-8.9 0zM866.30404 190.8l-8.9-8.9c-2.5-2.5-2.5-6.4 0-8.9l8.9-8.9c2.5-2.5 6.4-2.5 8.9 0l8.9 8.9c2.5 2.5 2.5 6.4 0 8.9l-8.9 8.9c-2.5 2.4-6.5 2.4-8.9 0zM1284.20404 211.5l-5.8-5.8c-1.6-1.6-1.6-4.2 0-5.8l5.8-5.8c1.6-1.6 4.2-1.6 5.8 0l5.8 5.8c1.6 1.6 1.6 4.2 0 5.8l-5.8 5.8c-1.5 1.6-4.2 1.6-5.8 0z" fill="#FD5681" p-id="2052"/>
  <path d="M1398.80404 519.7C1312.60404 370.5 1087.30404 326.6 1031.60404 318c-7.7-1.2-15.6 0.9-21.7 5.8-42.9 34.4-96.1 61.7-156 79.2v-2.9c0-9.3-0.9-18.5-2.5-27.4-1.7-9.9-4.5-19.5-8.2-28.7-22.5-57.4-78.3-98.1-143.8-98.1S578.20404 286.6 555.80404 344c-3.6 9.2-6.3 18.8-8.2 28.7-1.6 8.9-2.5 18.1-2.5 27.4v2.9c-9.5-2.8-19-5.8-28.1-9-48.7-17.2-92.3-41.3-128.5-70.4-5.8-4.7-13.3-6.9-20.7-6-53.4 6.3-270 41.7-366.7 201.7-3.5 5.8 2.8 12.8 8.9 9.9 1.5-0.7 2.8-1.3 4.2-1.9 21.6-9.3 45.3-14.4 70.3-14.4 30.9 0 59.9 7.9 85.3 21.7 49.9 27.3 85.2 77.7 91.6 136.9 0.4 4.7 5.4 7.6 9.8 5.7 19.4-8.3 40.8-13 63.1-13 60.2 0 112.4 33.4 139.4 82.7 1.7 3.1 5.4 4.5 8.7 3.2 15-5.7 31.2-9.2 48-10.1 2.8-0.1 5.4-0.1 8.2-0.1 46.7 0 88.7 20.1 117.8 52.2 16 17.8 29 55.4 36.3 80.9 1.9 6.7 11.5 6.7 13.4 0 7.3-25.5 20.3-63.1 36.3-80.9 29-32.1 71-52.2 117.8-52.2 2.8 0 5.4 0 8.2 0.1 16.8 0.9 33 4.4 48 10.1 3.4 1.3 7-0.1 8.7-3.2 27-49.3 79.3-82.7 139.5-82.7 22.5 0 43.7 4.7 63.1 13 4.4 1.9 9.3-0.9 9.8-5.7 9.5-89.2 85-158.8 176.9-158.8 24.9 0 48.7 5.1 70.3 14.4 1.7 0.7 3.5 1.5 5.1 2.3 6.4 3.1 12.5-3.9 9-9.7z" fill="#382868" p-id="2053"/>
  <path d="M1322.40404 433.8c-2.6-0.1-5.2-0.1-7.9-0.1-91.7 0-167.2 69.6-176.9 158.8-0.4 4.7-5.4 7.6-9.8 5.7-19.4-8.3-40.8-13-63.1-13-60.2 0-112.6 33.4-139.5 82.7-1.6 3.1-5.4 4.5-8.7 3.2-15-5.7-31.2-9.2-48-10.1-2.8-0.1-5.4-0.1-8.2-0.1-46.7 0-88.8 20.1-117.8 52.2-16 17.8-29 55.4-36.3 80.9-1.9 6.7-11.5 6.7-13.4 0-7.3-25.5-20.3-63.1-36.3-80.9-29-32.1-71-52.2-117.8-52.2-2.8 0-5.4 0-8.2 0.1-16.8 0.9-33 4.4-48 10.1-3.4 1.2-7-0.1-8.7-3.2-27-49.3-79.3-82.7-139.4-82.7-22.5 0-43.7 4.7-63.1 13-4.4 1.9-9.3-0.9-9.8-5.7-6.3-59.2-41.7-109.6-91.6-136.9-25.4-13.9-54.4-21.7-85.3-21.7-2.9 0-6 0.1-8.9 0.3-28.4 23.6-54.2 51.8-74.7 85.6-3.5 5.8 2.8 12.8 8.9 9.9 1.5-0.7 2.8-1.3 4.2-1.9 21.6-9.3 45.3-14.4 70.3-14.4 30.9 0 59.9 7.9 85.3 21.7 49.9 27.3 85.2 77.7 91.6 136.9 0.4 4.7 5.4 7.6 9.8 5.7 19.4-8.3 40.8-13 63.1-13 60.2 0 112.4 33.4 139.4 82.7 1.7 3.1 5.4 4.5 8.7 3.2 15-5.7 31.2-9.2 48-10.1 2.8-0.1 5.4-0.1 8.2-0.1 46.7 0 88.7 20.1 117.8 52.2 16 17.8 29 55.4 36.3 80.9 1.9 6.7 11.5 6.7 13.4 0 7.3-25.5 20.3-63.1 36.3-80.9 29-32.1 71-52.2 117.8-52.2 2.8 0 5.4 0 8.2 0.1 16.8 0.9 33 4.4 48 10.1 3.4 1.3 7-0.1 8.7-3.2 27-49.3 79.3-82.7 139.5-82.7 22.5 0 43.7 4.7 63.1 13 4.4 1.9 9.3-0.9 9.8-5.7 9.5-89.2 85-158.8 176.9-158.8 24.9 0 48.7 5.1 70.3 14.4 1.7 0.7 3.5 1.5 5.1 2.3 6.3 2.9 12.2-4.1 8.9-10.1-19.3-33.9-46-62.2-76.2-86z" fill="#8C71FF" p-id="2054"/>
  <path d="M661.90404 428.9c-5.4 0-9.3 5.1-8.2 10.4 4.7 20.1 22.7 35.1 44.5 35.1 21.6 0 39.7-15 44.5-35.1 1.2-5.2-2.6-10.4-8.2-10.4h-72.6z" fill="#F7ED02" p-id="2055"/>
  <path d="M635.10404 362.2m-17.5 0a17.5 17.5 0 1 0 35 0 17.5 17.5 0 1 0-35 0Z" fill="#F7ED02" p-id="2056"/>
  <path d="M761.30404 362.2m-17.5 0a17.5 17.5 0 1 0 35 0 17.5 17.5 0 1 0-35 0Z" fill="#F7ED02" p-id="2057"/>
  <path d="M1389.90404 529.6c-1.7-0.7-3.5-1.5-5.1-2.3-21.6-9.3-45.3-14.4-70.3-14.4-87.2 0-159.8 62.8-174.8 145.8-0.9 4.2-1.5 8.6-1.9 13-0.4 4.8-5.4 7.6-9.8 5.7-9.5-4.1-19.5-7.3-29.9-9.6-10.8-2.3-21.9-3.5-33.2-3.5-60.1 0-112.6 33.4-139.5 82.7-1.6 3.1-5.4 4.4-8.6 3.2-15-5.7-31.2-9.2-48-10.1-2.8-0.1-5.4-0.3-8.2-0.3-46.7 0-88.8 20.3-117.8 52.2-16 17.8-29 55.4-36.3 80.9-2 6.7-11.5 6.7-13.6 0-7.3-25.5-20.3-63.1-36.3-80.9-29-32.1-71-52.2-117.8-52.2-2.8 0-5.4 0.1-8.2 0.3-16.8 0.9-33 4.4-48 10.1-3.2 1.2-7-0.1-8.7-3.2-27-49.3-79.3-82.7-139.4-82.7-22.5 0-43.7 4.7-63.1 13-4.4 1.9-9.3-0.9-9.8-5.7-6.2-59.3-41.6-109.7-91.5-137-25.4-13.9-54.4-21.9-85.3-21.9-24.9 0-48.7 5.1-70.3 14.4-1.5 0.6-2.8 1.3-4.2 1.9-6.3 2.8-12.4-4.2-8.9-10.1 7.4-12.4 15.6-23.9 24.5-34.8 18.5-6.6 38.3-10.1 59.1-10.1 30.9 0 59.9 7.9 85.3 21.7 49.9 27.3 85.3 77.7 91.6 136.9 0.4 4.8 5.4 7.6 9.8 5.7 19.4-8.5 40.8-13 63.1-13 60.1 0 112.4 33.4 139.4 82.7 1.7 3.1 5.4 4.4 8.7 3.2 15.2-5.7 31.2-9.2 48-10.1 2.8-0.1 5.4-0.3 8.2-0.3 46.7 0 88.8 20.3 117.8 52.2 16 17.8 29 55.4 36.3 80.9 2 6.7 11.5 6.7 13.6 0 7.3-25.5 20.3-63.1 36.3-80.9 29-32.1 71-52.2 117.8-52.2 2.8 0 5.4 0.1 8.2 0.3 16.8 0.9 33 4.4 48 10.1 3.2 1.3 7-0.1 8.6-3.2 27-49.3 79.3-82.7 139.5-82.7 10.9 0 21.6 1.2 31.9 3.2 10.8 2.2 21.3 5.5 31.2 9.8 3.5 1.5 7.3 0 9-3.1 0.4-0.7 0.7-1.6 0.7-2.6 9.6-89.2 85-158.6 176.9-158.6 21.1 0 41.6 3.8 60.4 10.5 8.9 10.9 16.9 22.5 24.1 34.7 2.9 6.3-3.2 13.3-9.5 10.4z" fill="#7933FF" p-id="2058"/>
</svg>