<svg width="17" height="21" viewBox="0 0 17 21" fill="none" xmlns="http://www.w3.org/2000/svg">
<path d="M14.3527 8.49592L16.4734 7.90632C16.5058 7.89766 16.5397 7.89674 16.5724 7.90365C16.6052 7.91055 16.636 7.9251 16.6626 7.94617C16.6891 7.96725 16.7107 7.99431 16.7256 8.0253C16.7406 8.05629 16.7485 8.0904 16.7489 8.12504V12.9274C16.7483 13.1036 16.7051 13.2768 16.6233 13.4313C16.5415 13.5858 16.4237 13.7166 16.2806 13.8118L11.6903 16.8739C11.6571 16.896 11.6188 16.9085 11.5794 16.9101C11.54 16.9117 11.5009 16.9023 11.4662 16.8828C11.4315 16.8634 11.4024 16.8347 11.3821 16.7996C11.3618 16.7646 11.3509 16.7246 11.3506 16.6837V13.8308C11.3509 13.7929 11.3602 13.7557 11.3779 13.7225C11.3955 13.6893 11.4208 13.6612 11.4516 13.6406L14.0222 11.9384C14.0843 11.898 14.1354 11.8419 14.1708 11.7753C14.2061 11.7088 14.2245 11.634 14.2242 11.558V8.72415C14.2186 8.67679 14.2282 8.62886 14.2514 8.58766C14.2746 8.54645 14.3102 8.51424 14.3527 8.49592Z" fill="#00F371"/>
<path d="M2.8952 8.49592L0.774465 7.90632C0.742084 7.89766 0.708223 7.89674 0.67545 7.90365C0.642677 7.91055 0.611852 7.9251 0.585311 7.94617C0.558769 7.96725 0.537208 7.99431 0.522262 8.0253C0.507315 8.05629 0.499376 8.0904 0.499045 8.12504V12.9274C0.497933 13.1039 0.540358 13.2778 0.622297 13.4326C0.704236 13.5873 0.822975 13.7179 0.96726 13.8118L5.5576 16.8739C5.59057 16.8936 5.62792 16.9042 5.666 16.9045C5.70408 16.9049 5.7416 16.895 5.77489 16.8758C5.80818 16.8567 5.83611 16.8289 5.85595 16.7952C5.87579 16.7616 5.88687 16.7231 5.88811 16.6837V13.8308C5.88784 13.7929 5.87847 13.7557 5.86084 13.7225C5.84321 13.6893 5.81787 13.6612 5.78712 13.6406L3.25325 11.9764C3.19285 11.9342 3.14303 11.8777 3.10791 11.8115C3.07278 11.7454 3.05337 11.6715 3.05127 11.5961V8.72415C3.05339 8.67356 3.0392 8.62368 3.01094 8.58237C2.98269 8.54105 2.94197 8.51064 2.8952 8.49592Z" fill="#00F371"/>
<path d="M10.8549 15.5235L9.16561 16.6362C9.00369 16.7428 8.8158 16.7994 8.62395 16.7994C8.4321 16.7994 8.24421 16.7428 8.08229 16.6362L7.03569 15.9515L6.67764 15.7137L4.7038 14.4299L0.499045 11.6341V14.4299C0.499491 14.6048 0.542656 14.7768 0.624523 14.9297C0.70639 15.0827 0.824294 15.2117 0.96726 15.3048L2.8034 16.5125L3.53785 16.9975L6.10844 18.6902L6.42059 18.8995L8.09147 20.0026C8.25339 20.1092 8.44128 20.1658 8.63313 20.1658C8.82498 20.1658 9.01287 20.1092 9.17479 20.0026L14.4904 16.4935L16.3265 15.3048C16.4599 15.2051 16.5679 15.0734 16.6414 14.9211C16.715 14.7687 16.7518 14.6002 16.7489 14.4299V11.6721L10.8549 15.5235Z" fill="#00F371"/>
<path d="M8.32099 10.0175L5.45661 9.21865C5.42423 9.20998 5.39037 9.20907 5.3576 9.21598C5.32483 9.22288 5.294 9.23742 5.26746 9.2585C5.24092 9.27958 5.21936 9.30664 5.20441 9.33763C5.18946 9.36862 5.18152 9.40273 5.18119 9.43737V10.8923C5.18048 10.9439 5.19282 10.9947 5.21698 11.0398C5.24114 11.0848 5.27629 11.1225 5.3189 11.1491L8.27508 13.051C8.37903 13.1206 8.50018 13.1577 8.62395 13.1577C8.74773 13.1577 8.86887 13.1206 8.97281 13.051L11.929 11.1491C11.9704 11.1212 12.0046 11.0832 12.0286 11.0384C12.0526 10.9937 12.0657 10.9435 12.0667 10.8923V9.43737C12.0664 9.40273 12.0584 9.36862 12.0435 9.33763C12.0285 9.30664 12.007 9.27958 11.9804 9.2585C11.9539 9.23742 11.9231 9.22288 11.8903 9.21598C11.8575 9.20907 11.8237 9.20998 11.7913 9.21865L8.92691 10.0175C8.72871 10.0746 8.51919 10.0746 8.32099 10.0175Z" fill="#00F371"/>
<path d="M16.7489 4.62549C16.7486 4.5375 16.7265 4.45106 16.6847 4.37446C16.6429 4.29786 16.5828 4.23367 16.5102 4.18805L14.4353 2.86621C14.3593 2.81736 14.2722 2.79029 14.1828 2.78776C14.0934 2.78524 14.0049 2.80736 13.9265 2.85185C13.8481 2.89635 13.7824 2.96162 13.7363 3.041C13.6902 3.12039 13.6653 3.21103 13.6641 3.30365C13.6641 3.55587 13.5674 3.79775 13.3952 3.97609C13.2231 4.15443 12.9896 4.25462 12.7461 4.25462H12.2503C12.0305 4.25339 11.8132 4.20702 11.6108 4.11817C11.4085 4.02933 11.2251 3.89979 11.0714 3.73705C10.9177 3.57432 10.7967 3.38161 10.7154 3.1701C10.6341 2.95859 10.5942 2.73247 10.5978 2.50484V1.55388C10.5978 1.50959 10.5878 1.46591 10.5687 1.4263C10.5496 1.38668 10.5218 1.35222 10.4876 1.32565L8.89937 0.251061C8.81925 0.195458 8.72498 0.165771 8.62854 0.165771C8.5321 0.165771 8.43783 0.195458 8.35771 0.251061L6.76945 1.28761C6.73241 1.31195 6.702 1.34569 6.68111 1.38564C6.66022 1.42559 6.64955 1.47041 6.6501 1.51584V2.46681C6.65499 2.69602 6.61563 2.92394 6.53431 3.13719C6.453 3.35043 6.33137 3.54469 6.17658 3.70857C6.02178 3.87246 5.83694 4.00266 5.6329 4.09153C5.42886 4.1804 5.20974 4.22614 4.9884 4.22609H4.47428C4.23079 4.22609 3.99728 4.1259 3.82511 3.94756C3.65294 3.76922 3.55621 3.52734 3.55621 3.27513C3.55605 3.18103 3.53139 3.08872 3.48481 3.00792C3.43824 2.92713 3.37149 2.86085 3.2916 2.81606C3.21171 2.77128 3.12163 2.74965 3.03086 2.75345C2.94009 2.75726 2.85199 2.78636 2.77585 2.83768L0.728562 4.2356C0.658794 4.28363 0.601414 4.34859 0.561413 4.42483C0.521411 4.50107 0.500001 4.58628 0.499045 4.67304V6.08047C0.499456 6.17964 0.531038 6.27598 0.589013 6.3549C0.646989 6.43383 0.728202 6.49105 0.820369 6.51791L8.16492 8.56248C8.46487 8.65178 8.78303 8.65178 9.08298 8.56248L16.4275 6.5084C16.519 6.4834 16.5999 6.42798 16.658 6.35066C16.716 6.27334 16.748 6.17841 16.7489 6.08047V4.62549Z" fill="#00F371"/>
</svg>
